<?xml version="1.0" standalone="no"?>
<!DOCTYPE svg PUBLIC "-//W3C//DTD SVG 20010904//EN"
 "http://www.w3.org/TR/2001/REC-SVG-20010904/DTD/svg10.dtd">
<svg version="1.0" xmlns="http://www.w3.org/2000/svg"
 width="500.000000pt" height="500.000000pt" viewBox="0 0 500.000000 500.000000"
 preserveAspectRatio="xMidYMid meet">
<metadata>
Created by potrace 1.14, written by Peter Selinger 2001-2017
</metadata>
<g transform="translate(0.000000,500.000000) scale(0.100000,-0.100000)"
fill="#000000" stroke="none">
<path d="M3485 4553 c-36 -8 -98 -57 -117 -95 -24 -46 -25 -129 -3 -182 30
-71 105 -158 195 -226 25 -19 83 -70 129 -115 202 -194 339 -433 444 -775 49
-161 54 -188 19 -122 -44 85 -119 179 -190 237 -92 76 -247 154 -342 172 -14
2 -45 9 -70 14 -25 6 -76 13 -115 15 -38 3 -82 7 -98 9 -31 4 -41 -9 -52 -70
-4 -22 -21 -71 -39 -110 -27 -58 -55 -92 -157 -195 -133 -133 -161 -176 -184
-285 -17 -79 -12 -276 9 -372 7 -30 1 -41 -81 -145 -48 -62 -90 -115 -93 -118
-30 -29 -130 -163 -130 -174 0 -31 146 -98 264 -121 88 -17 249 -17 346 0 41
7 89 15 105 18 17 3 37 6 45 8 20 5 19 -22 -3 -106 -74 -288 -245 -492 -514
-613 -213 -97 -511 -133 -758 -93 -183 30 -337 79 -505 159 -72 35 -203 113
-220 132 -3 3 -25 18 -49 35 -70 48 -231 214 -299 311 -69 96 -159 271 -191
371 -51 161 -74 315 -74 493 1 331 80 588 263 860 32 47 66 95 76 107 11 12
29 35 41 50 12 15 47 55 78 88 31 33 77 85 103 115 26 30 54 63 63 73 9 10 31
47 49 82 62 123 49 247 -34 303 -114 77 -247 43 -391 -102 -299 -302 -513
-668 -616 -1056 -53 -200 -77 -396 -74 -615 2 -104 5 -201 8 -215 3 -14 8 -43
11 -66 35 -275 174 -635 346 -899 40 -60 76 -112 80 -115 3 -3 11 -12 16 -21
42 -76 258 -293 399 -400 326 -250 670 -400 1035 -453 172 -25 200 -27 320
-27 121 0 151 2 370 26 22 2 106 17 165 29 298 60 678 240 910 430 244 200
467 473 595 727 163 322 250 683 253 1049 1 75 -9 243 -17 290 -3 14 -7 43
-11 65 -44 303 -159 592 -352 890 -161 247 -439 518 -675 658 -87 52 -217 84
-283 70z m-146 -1506 c19 -48 13 -97 -16 -143 -29 -46 -55 -59 -48 -24 2 10
-1 35 -6 55 -24 85 -18 141 23 205 l22 35 7 -50 c4 -27 12 -63 18 -78z m-284
-762 c17 -16 54 -51 83 -76 l54 -46 -44 -34 c-24 -19 -53 -40 -65 -46 -34 -19
-152 -49 -203 -52 -125 -7 -190 -4 -190 10 0 6 24 36 53 67 61 66 104 120 172
216 l49 69 30 -39 c17 -21 45 -52 61 -69z"/>
<path d="M3286 3970 c-52 -17 -87 -60 -91 -114 -7 -81 63 -160 216 -240 51
-27 120 -69 152 -92 33 -24 67 -44 76 -44 61 0 297 -121 372 -191 59 -55 60
-53 18 46 -112 271 -249 476 -353 533 -163 88 -311 127 -390 102z"/>
<path d="M2541 3948 c-96 -10 -194 -37 -338 -94 -133 -53 -187 -81 -263 -137
-257 -191 -360 -419 -279 -621 56 -143 232 -246 447 -260 24 -2 47 -7 51 -12
5 -5 18 -58 30 -119 30 -149 29 -147 50 -136 32 18 144 140 203 223 58 80 61
82 128 104 280 91 521 299 596 511 9 26 19 80 21 119 20 278 -259 460 -646
422z"/>
<path d="M1972 2685 c-80 -111 -97 -126 -117 -106 -27 25 -183 54 -278 53
-353 -7 -492 -347 -302 -738 56 -116 115 -194 245 -324 157 -158 273 -234 442
-292 174 -59 359 -47 474 33 75 51 132 140 153 237 53 252 -100 589 -373 819
-16 13 -30 36 -31 51 -7 59 -28 151 -52 222 -26 80 -63 160 -72 160 -3 0 -43
-52 -89 -115z"/>
</g>
</svg>
